# xmcd
#
# Track frame offsets:
#	150
#	8495
#	16197
#	39662
#	84145
#	112435
#	132135
#	156712
#
# Disc length: 2330 seconds
# Revision: 8
# Processed by: cddbd v1.5.2PL0 Copyright (c) Steve Scherf et al.
# Submitted via: dBpowerAMP V12.0
#
DISCID=5c091808
DTITLE=B.B. King - Live in Cook County Jail [MCAD-31080]
DYEAR=1970
DGENRE=Blues
TTITLE0=[Introductions]
TTITLE1=Every Day I Have the Blues
TTITLE2=How Blue Can You Get?
TTITLE3=Worry, Worry
TTITLE4=3 O'Clock Blues - Darlin' You Know I Love You
TTITLE5=Sweet Sixteen
TTITLE6=The Thrill Is Gone
TTITLE7=Please Accept My Love
EXTD=
EXTT0=
EXTT1=
EXTT2=
EXTT3=
EXTT4=
EXTT5=
EXTT6=
EXTT7=
PLAYORDER=
